<svg width="200" height="200" viewBox="0 0 200 200" fill="none" xmlns="http://www.w3.org/2000/svg">
<rect width="200" height="200" fill="#55295E"/>
<path d="M85.36 70.099C94.2243 75.2764 100.5 82.4934 100.5 82.4934" stroke="white" stroke-width="5" stroke-miterlimit="10" stroke-linecap="round"/>
<path d="M68.8079 65C70.9259 65 73.044 65.3138 75.162 65.7845C76.1818 66.0198 77.1231 66.3336 78.1429 66.6474" fill="#8F6948"/>
<path d="M68.8079 65C70.9259 65 73.044 65.3138 75.162 65.7845C76.1818 66.0198 77.1231 66.3336 78.1429 66.6474" stroke="#8F6948" stroke-width="3" stroke-miterlimit="10" stroke-linecap="round"/>
<path d="M100.5 82.4934C100.5 82.4934 85.36 99.8299 68.8079 99.8299C52.2559 99.8299 48.5689 89.3182 48.5689 89.3182C48.5689 89.3182 45.0389 83.121 48.5689 75.5118C48.5689 75.5118 51.2361 68.1379 61.7478 65.7845" stroke="white" stroke-width="2" stroke-miterlimit="10" stroke-linecap="round"/>
<path d="M115.64 94.8878C106.776 89.7104 100.5 82.4934 100.5 82.4934" stroke="white" stroke-width="5" stroke-miterlimit="10" stroke-linecap="round"/>
<path d="M132.114 99.9868C129.996 99.9868 127.878 99.6731 125.76 99.2024C124.74 98.967 123.798 98.6533 122.779 98.3395" fill="#8F6948"/>
<path d="M132.114 99.9868C129.996 99.9868 127.878 99.6731 125.76 99.2024C124.74 98.967 123.798 98.6533 122.779 98.3395" stroke="#8F6948" stroke-width="3" stroke-miterlimit="10" stroke-linecap="round"/>
<path d="M100.5 82.4934C100.5 82.4934 115.64 65.1569 132.192 65.1569C148.744 65.1569 152.431 75.6687 152.431 75.6687C152.431 75.6687 155.961 81.8659 152.431 89.4751C152.431 89.4751 149.764 96.849 139.252 99.2024" stroke="white" stroke-width="2" stroke-miterlimit="10" stroke-linecap="round"/>
<path d="M49.8973 130.437L49.8974 130.437L49.8936 130.433C49.0628 129.603 48.54 128.448 48.54 127.167C48.54 125.886 49.0628 124.731 49.8936 123.9L49.8936 123.9L49.8973 123.897C50.7283 123.048 51.8815 122.527 53.12 122.527C54.3588 122.527 55.5329 123.048 56.3845 123.898C57.1983 124.731 57.72 125.867 57.72 127.167C57.72 128.466 57.1983 129.602 56.3845 130.435C55.5329 131.286 54.3588 131.807 53.12 131.807C51.8815 131.807 50.7283 131.286 49.8973 130.437ZM47.721 132.575L47.7211 132.575C49.0937 133.99 51.0225 134.847 53.12 134.847C55.2389 134.847 57.1458 133.989 58.5362 132.578L58.539 132.575C59.8812 131.19 60.76 129.288 60.76 127.167C60.76 125.046 59.8812 123.144 58.539 121.759L58.5391 121.759L58.5336 121.753C57.1467 120.366 55.242 119.487 53.12 119.487C51.0193 119.487 49.0929 120.365 47.7237 121.756L47.7237 121.756L47.721 121.759C46.3788 123.144 45.5 125.046 45.5 127.167C45.5 129.288 46.3788 131.19 47.721 132.575Z" fill="#8F6948" stroke="#8F6948"/>
<path d="M72.1573 130.437L72.1573 130.437L72.1535 130.433C71.3228 129.603 70.8 128.448 70.8 127.167C70.8 125.886 71.3228 124.731 72.1535 123.9L72.1536 123.9L72.1573 123.897C72.9883 123.048 74.1415 122.527 75.38 122.527C76.6188 122.527 77.7929 123.048 78.6445 123.898C79.4583 124.731 79.98 125.867 79.98 127.167C79.98 128.466 79.4583 129.602 78.6445 130.435C77.7929 131.286 76.6188 131.807 75.38 131.807C74.1415 131.807 72.9883 131.286 72.1573 130.437ZM69.981 132.575L69.981 132.575C71.3537 133.99 73.2825 134.847 75.38 134.847C77.4989 134.847 79.4058 133.989 80.7962 132.578L80.799 132.575C82.1412 131.19 83.02 129.288 83.02 127.167C83.02 125.046 82.1412 123.144 80.799 121.759L80.7991 121.759L80.7935 121.753C79.4067 120.366 77.502 119.487 75.38 119.487C73.2793 119.487 71.3529 120.365 69.9837 121.756L69.9837 121.756L69.981 121.759C68.6388 123.144 67.76 125.046 67.76 127.167C67.76 129.288 68.6388 131.19 69.981 132.575Z" fill="#8F6948" stroke="#8F6948"/>
<path d="M92.54 134.167V124.387L99.3 134.167H100.9V120.167H98.9V130.027L92.08 120.167L90.52 120.147V134.167H92.54Z" fill="white"/>
<path d="M131.94 126.167H125.6V128.207H131.94V132.147H125.46V134.167H133.98V120.187H125.44V122.207H131.94V126.167Z" fill="white"/>
<path d="M110.94 128.187H117.28V126.147H110.94V122.207H117.42V120.187H108.9V134.167H117.44V132.147H110.94V128.187Z" fill="white"/>
<path d="M141.98 120.187C143.26 121.967 145.54 125.147 147.04 127.207L141.98 134.167H144.46L148.26 128.927L152.08 134.167H154.54C153.2 132.307 150.98 129.267 149.48 127.207L154.54 120.187H152.08L148.26 125.427L144.46 120.187H141.98Z" fill="white"/>
</svg>
